<svg viewBox="0 0 24 24" xmlns="http://www.w3.org/2000/svg">
    <path d="M22.3599 11.9075C22.3599 16.8269 17.8019 20.8149 12.18 20.8149C11.1717 20.8163 10.1676 20.6854 9.19342 20.4256C8.45028 20.8022 6.74387 21.525 3.87311 21.9958C3.61862 22.0365 3.4252 21.7719 3.52572 21.5352C3.97619 20.4714 4.38339 19.0538 4.50554 17.761C2.94674 16.1958 2 14.1471 2 11.9075C2 6.988 6.55808 3 12.18 3C17.8019 3 22.3599 6.988 22.3599 11.9075ZM11.1543 10.3372C11.0705 10.212 10.9736 10.096 10.8655 9.99109C10.6954 9.81596 10.4927 9.67589 10.2687 9.5788L10.2585 9.57371C9.95714 9.43379 9.62875 9.36168 9.29649 9.36248C8.07744 9.36248 7.08998 10.3118 7.08998 11.4837C7.08998 12.6544 8.07744 13.6037 9.29649 13.6037C9.73296 13.6037 10.1389 13.4828 10.4812 13.2729C10.3069 13.7679 9.98491 14.2959 9.45046 14.8253C9.40012 14.8744 9.36037 14.9334 9.33366 14.9984C9.30696 15.0635 9.29385 15.1334 9.29516 15.2037C9.29648 15.2741 9.31217 15.3434 9.34129 15.4074C9.37041 15.4715 9.41232 15.5289 9.46446 15.5761C9.6846 15.7797 10.0333 15.7733 10.2458 15.5634C11.9433 13.8722 11.9891 12.0538 11.4432 10.8475C11.363 10.6692 11.2663 10.4988 11.1543 10.3385V10.3372ZM15.9975 13.2729C15.8244 13.7679 15.5012 14.2959 14.9667 14.8253C14.9165 14.8745 14.8768 14.9335 14.8502 14.9986C14.8236 15.0638 14.8106 15.1337 14.8121 15.204C14.8135 15.2743 14.8293 15.3436 14.8585 15.4076C14.8878 15.4716 14.9298 15.5289 14.982 15.5761C15.2009 15.7797 15.5495 15.7733 15.762 15.5634C17.4596 13.8722 17.5054 12.0538 16.9607 10.8475C16.8801 10.6691 16.783 10.4987 16.6706 10.3385C16.5868 10.2128 16.49 10.0964 16.3818 9.99109C16.2117 9.81594 16.0089 9.67586 15.785 9.5788L15.7748 9.57371C15.4738 9.43397 15.1459 9.36187 14.814 9.36248C13.5963 9.36248 12.6075 10.3118 12.6075 11.4837C12.6075 12.6544 13.5963 13.6037 14.814 13.6037C15.2505 13.6037 15.6564 13.4828 15.9987 13.2729H15.9975Z" fill="white" />
</svg>    