<svg viewBox="0 0 24 24" xmlns="http://www.w3.org/2000/svg">
<path d="M8.17708 12C7.05208 12.0372 6.13194 12.5134 5.41667 13.4286H4.02083C3.45139 13.4286 2.97222 13.2779 2.58333 12.9766C2.19444 12.6752 2 12.2344 2 11.654C2 9.02753 2.43056 7.71429 3.29167 7.71429C3.33333 7.71429 3.48437 7.79241 3.74479 7.94866C4.00521 8.10491 4.34375 8.26302 4.76042 8.42299C5.17708 8.58296 5.59028 8.66295 6 8.66295C6.46528 8.66295 6.92708 8.57738 7.38542 8.40625C7.35069 8.68155 7.33333 8.92708 7.33333 9.14286C7.33333 10.1771 7.61458 11.1295 8.17708 12ZM19.3333 19.1094C19.3333 20.0022 19.0799 20.7072 18.5729 21.2243C18.066 21.7414 17.3924 22 16.5521 22H7.44792C6.60764 22 5.93403 21.7414 5.42708 21.2243C4.92014 20.7072 4.66667 20.0022 4.66667 19.1094C4.66667 18.715 4.67882 18.33 4.70313 17.9542C4.72743 17.5785 4.77604 17.173 4.84896 16.7377C4.92187 16.3025 5.01389 15.8988 5.125 15.5268C5.23611 15.1548 5.38542 14.792 5.57292 14.4386C5.76042 14.0852 5.97569 13.7839 6.21875 13.5346C6.46181 13.2853 6.75868 13.0863 7.10937 12.9375C7.46007 12.7887 7.84722 12.7143 8.27083 12.7143C8.34028 12.7143 8.48958 12.7943 8.71875 12.9542C8.94792 13.1142 9.20139 13.2928 9.47917 13.49C9.75694 13.6871 10.1285 13.8657 10.5937 14.0257C11.059 14.1856 11.5278 14.2656 12 14.2656C12.4722 14.2656 12.941 14.1856 13.4062 14.0257C13.8715 13.8657 14.2431 13.6871 14.5208 13.49C14.7986 13.2928 15.0521 13.1142 15.2812 12.9542C15.5104 12.7943 15.6597 12.7143 15.7292 12.7143C16.1528 12.7143 16.5399 12.7887 16.8906 12.9375C17.2413 13.0863 17.5382 13.2853 17.7812 13.5346C18.0243 13.7839 18.2396 14.0852 18.4271 14.4386C18.6146 14.792 18.7639 15.1548 18.875 15.5268C18.9861 15.8988 19.0781 16.3025 19.151 16.7377C19.224 17.173 19.2726 17.5785 19.2969 17.9542C19.3212 18.33 19.3333 18.715 19.3333 19.1094ZM8.66667 4.85714C8.66667 5.64583 8.40625 6.3192 7.88542 6.87723C7.36458 7.43527 6.73611 7.71429 6 7.71429C5.26389 7.71429 4.63542 7.43527 4.11458 6.87723C3.59375 6.3192 3.33333 5.64583 3.33333 4.85714C3.33333 4.06845 3.59375 3.39509 4.11458 2.83705C4.63542 2.27902 5.26389 2 6 2C6.73611 2 7.36458 2.27902 7.88542 2.83705C8.40625 3.39509 8.66667 4.06845 8.66667 4.85714ZM16 9.14286C16 10.3259 15.6094 11.3359 14.8281 12.173C14.0469 13.01 13.1042 13.4286 12 13.4286C10.8958 13.4286 9.95312 13.01 9.17187 12.173C8.39062 11.3359 8 10.3259 8 9.14286C8 7.95982 8.39062 6.94978 9.17187 6.11272C9.95312 5.27567 10.8958 4.85714 12 4.85714C13.1042 4.85714 14.0469 5.27567 14.8281 6.11272C15.6094 6.94978 16 7.95982 16 9.14286ZM22 11.654C22 12.2344 21.8056 12.6752 21.4167 12.9766C21.0278 13.2779 20.5486 13.4286 19.9792 13.4286H18.5833C17.8681 12.5134 16.9479 12.0372 15.8229 12C16.3854 11.1295 16.6667 10.1771 16.6667 9.14286C16.6667 8.92708 16.6493 8.68155 16.6146 8.40625C17.0729 8.57738 17.5347 8.66295 18 8.66295C18.4097 8.66295 18.8229 8.58296 19.2396 8.42299C19.6562 8.26302 19.9948 8.10491 20.2552 7.94866C20.5156 7.79241 20.6667 7.71429 20.7083 7.71429C21.5694 7.71429 22 9.02753 22 11.654ZM20.6667 4.85714C20.6667 5.64583 20.4062 6.3192 19.8854 6.87723C19.3646 7.43527 18.7361 7.71429 18 7.71429C17.2639 7.71429 16.6354 7.43527 16.1146 6.87723C15.5937 6.3192 15.3333 5.64583 15.3333 4.85714C15.3333 4.06845 15.5937 3.39509 16.1146 2.83705C16.6354 2.27902 17.2639 2 18 2C18.7361 2 19.3646 2.27902 19.8854 2.83705C20.4062 3.39509 20.6667 4.06845 20.6667 4.85714Z" fill="black" fill-opacity="0.87"/>
</svg>
