<svg width="24" height="24" viewBox="0 0 24 24" fill="none" xmlns="http://www.w3.org/2000/svg">
<path fill-rule="evenodd" clip-rule="evenodd" d="M14.7317 3.44627C14.5467 2.73908 13.9923 2.17281 13.2671 2.08111C12.8521 2.02863 12.4292 2.00159 12 2.00159C11.5707 2.00159 11.1478 2.02863 10.7328 2.08111C10.0076 2.17282 9.45322 2.73909 9.26827 3.44627L9.09213 4.11974C8.81027 5.19743 7.70225 5.83715 6.62801 5.5424L5.95803 5.35857C5.2538 5.16534 4.48698 5.36172 4.0441 5.94236C3.53236 6.61325 3.10356 7.35079 2.77298 8.1397C2.49082 8.81304 2.70433 9.57519 3.22365 10.0883L3.72017 10.5789C4.51254 11.3619 4.51254 12.6413 3.72017 13.4242L3.22365 13.9149C2.70433 14.428 2.49082 15.1901 2.77298 15.8635C3.10356 16.6524 3.53237 17.3899 4.0441 18.0608C4.48699 18.6415 5.2538 18.8378 5.95803 18.6446L6.62801 18.4608C7.70225 18.166 8.81027 18.8057 9.09213 19.8834L9.26826 20.5569C9.45322 21.2641 10.0076 21.8304 10.7328 21.9221C11.1478 21.9745 11.5707 22.0016 12 22.0016C12.4292 22.0016 12.8521 21.9745 13.2671 21.9221C13.9923 21.8304 14.5467 21.2641 14.7317 20.5569L14.9078 19.8834C15.1897 18.8057 16.2977 18.166 17.3719 18.4608L18.0419 18.6446C18.7462 18.8378 19.513 18.6415 19.9559 18.0608C20.4676 17.39 20.8964 16.6524 21.227 15.8635C21.5092 15.1902 21.2957 14.428 20.7763 13.9149L20.2798 13.4242C19.4874 12.6413 19.4874 11.3619 20.2798 10.5789L20.7763 10.0883C21.2957 9.57515 21.5092 8.813 21.227 8.13965C20.8964 7.35076 20.4676 6.61322 19.9559 5.94234C19.513 5.36171 18.7462 5.16533 18.042 5.35856L17.3719 5.5424C16.2977 5.83715 15.1897 5.19743 14.9078 4.11974L14.7317 3.44627ZM15.5 12C15.5 13.933 13.933 15.5 12 15.5C10.067 15.5 8.5 13.933 8.5 12C8.5 10.067 10.067 8.49999 12 8.49999C13.933 8.49999 15.5 10.067 15.5 12Z" fill="#262F56"/>
</svg>
